<?xml version="1.0" standalone="no"?><!DOCTYPE svg PUBLIC "-//W3C//DTD SVG 1.1//EN" "http://www.w3.org/Graphics/SVG/1.1/DTD/svg11.dtd"><svg t="1765413918190" class="icon" viewBox="0 0 1024 1024" version="1.1" xmlns="http://www.w3.org/2000/svg" p-id="10126" xmlns:xlink="http://www.w3.org/1999/xlink" width="200" height="200"><path d="M445.289056 821.713137s-28.931868 27.902654-36.718459 102.836994" fill="#FFBB3F" p-id="10127"></path><path d="M419.060982 925.642616l-20.980771-2.18497c8.090293-77.865911 38.59129-108.088514 39.890461-109.337068l14.640985 15.185118-7.318383-7.592559 7.381654 7.529288c-0.26574 0.26574-26.409451 27.033728-33.613946 96.400191z" fill="#6E6E96" p-id="10128"></path><path d="M430.648071 806.532237c-3.53054 3.403997-34.714867 35.566921-43.054028 115.837142a21.090442 21.090442 0 1 0 41.957325 4.357286c6.723633-64.751874 30.391327-89.845282 30.62754-90.077277l-0.248868 0.248867a21.077787 21.077787 0 0 0 0.539916-29.813448 21.077787 21.077787 0 0 0-29.821885-0.55257z" fill="#FFBB3F" p-id="10129"></path><path d="M408.587469 956.185794a32.901089 32.901089 0 0 1-3.273237-0.164506c-17.361652-1.813778-30.011699-17.395396-28.210574-34.740175 8.727225-84.015884 42.412878-118.663261 46.22603-122.337217a31.48803 31.48803 0 0 1 21.95515-8.866422 31.340396 31.340396 0 0 1 22.781895 9.688949c11.878137 12.308382 11.722068 32.074344-0.295266 44.205566-1.358224 1.548038-21.693628 25.688158-27.729713 83.842942a31.551301 31.551301 0 0 1-31.454285 28.370863z m36.697369-145.017878c-2.741757 0-5.3401 1.050304-7.314166 2.952662-1.299171 1.252772-31.79595 31.454285-39.886243 109.341286a10.557875 10.557875 0 0 0 9.402119 11.578653c5.681765 0.598969 10.979684-3.644428 11.578652-9.402119 6.858612-66.046827 30.66972-93.249279 33.360861-96.134452l0.084362-0.092798v-0.004218l0.004218 0.004218 0.101234-0.105452 0.113889-0.10967a10.570529 10.570529 0 0 0 0.160287-14.788618 10.477731 10.477731 0 0 0-7.605213-3.239492z" fill="#6E6E96" p-id="10130"></path><path d="M356.148195 964.596662c-0.118106 0.134979-0.050617 0.063271-0.172942 0.194032 3.90595-4.175907 40.038095-39.455998 105.376283 6.837521a21.090442 21.090442 0 1 0 24.393205-34.419601c-78.490188-55.628149-139.719958-24.726434-161.130975-0.620059a21.090442 21.090442 0 1 0 31.534429 28.008107z" fill="#FFBB3F" p-id="10131"></path><path d="M473.533375 986.058295a31.458503 31.458503 0 0 1-18.276977-5.82518c-20.305877-14.392117-39.32102-21.68941-56.513947-21.68941-21.769554 0-33.744707 12.042642-35.035442 13.421957a31.673625 31.673625 0 0 1-23.330247 10.262609 31.580827 31.580827 0 0 1-20.993425-7.980623 31.42054 31.42054 0 0 1-10.57053-21.786426 31.39945 31.39945 0 0 1 7.930006-22.878912c14.653639-16.501162 43.906082-34.136989 82.041819-34.136989 30.703465 0 62.018553 11.161062 93.063683 33.158393 14.227612 10.102322 17.597865 29.885156 7.516633 44.10855a31.715806 31.715806 0 0 1-25.831573 13.346031z m-74.795142-48.605032c21.647229 0 44.766572 8.600682 68.712659 25.570052 4.610371 3.269018 11.468982 2.062645 14.704256-2.501327a10.574747 10.574747 0 0 0-2.513981-14.712692c-27.40492-19.420079-54.61159-29.269315-80.860753-29.269315-31.150582 0-54.662207 13.974527-66.278823 27.054819a10.448205 10.448205 0 0 0-2.640523 7.622086c0.168724 2.817683 1.417278 5.394935 3.522104 7.267766 4.188562 3.720354 11.173716 3.290109 14.881416-0.885799l0.282611 0.248867-0.269957-0.257303 0.071707-0.084362c3.150912-3.349162 20.402893-20.052792 50.389284-20.052792z" fill="#6E6E96" p-id="10132"></path><path d="M781.11216 810.632219c-175.974428 107.708886-417.767906 76.545649-515.467269-45.80844-128.50828-160.941161-17.724407-308.835775 80.590796-403.911486 98.319421-95.067275 155.634806 20.187771 275.719563 144.380947 120.10163 124.180521 275.808143 233.93518 159.15691 305.338979z" fill="#6CB7E6" p-id="10133"></path><path d="M712.661022 723.798652c-33.487403 33.757361-125.846666 67.379743-206.218121 59.124945-53.223839-5.470861-111.235208-66.008865-83.454878-28.463661 64.34272 87.010726-4.682078 40.375542-108.25302-67.582211-14.079979-14.674729 69.590022 128.035854-43.058246 10.608492-99.517358-103.739665 6.618181-266.621146 86.711243-347.359575 80.093062-80.734211 126.7873 17.138093 224.613204 122.594519 97.842777 105.464863 209.752879 170.34328 129.659818 251.077491z" fill="#9EDBFF" p-id="10134"></path><path d="M212.146876 649.695276s-21.09466-90.971511 75.444729-90.971511c37.271029 0 71.374273 1.446804 98.045245 60.386152l65.287572-140.766044s-275.867196-109.100855-238.777546 171.351403z" fill="#6CB7E6" p-id="10135"></path><path d="M775.675044 801.753143c-164.248142 100.533918-403.468587 79.835758-501.889242-43.437874-94.852153-118.802458-68.788585-246.340578 79.692343-389.920087 23.161523-22.406485 44.319454-32.884217 64.684385-32.074344 40.472558 1.6324 80.877626 47.516765 132.034601 105.599842 19.057323 21.638793 40.658154 46.166977 64.27523 70.598145 21.60083 22.347432 44.357417 44.209784 66.346312 65.371933 69.906378 67.227892 135.940551 130.722776 130.832446 177.754461-1.885485 17.361652-13.65817 32.441317-35.976075 46.107924z m-146.232687-303.710797c-23.288066-24.081066-43.787975-47.364914-63.625645-69.88107-54.438648-61.824521-97.454713-110.661548-146.819001-112.639831-26.358834-1.054522-52.523636 11.338221-79.996046 37.903742-65.878104 63.705788-107.734195 123.016329-127.951491 181.314527-28.619729 82.518462-12.987494 162.118008 46.462243 236.567267 49.212437 61.630489 135.033662 102.832776 235.466346 113.053204 103.760755 10.545221 208.023463-12.48976 293.574731-64.84889 27.80142-17.019986 43.210097-37.747673 45.800003-61.613617 6.225898-57.201496-60.196339-121.063354-137.09209-195.002224-21.862352-21.035607-44.471305-42.775634-65.81905-64.853108z" fill="#6E6E96" p-id="10136"></path><path d="M705.068463 512.371192l-347.920581 65.321316s28.337118 18.572243 43.615033 87.470498c17.513503 78.996359 111.011649 163.185184 216.716943 125.935246 26.746898-9.418991 62.356-58.011369 104.444086-63.444267 16.944061-2.197624-6.719415-44.922641 31.669407-44.922641 19.799707 0 52.667051-89.706085 16.522252-138.256282l-65.04714-32.10387z" fill="#6CB7E6" p-id="10137"></path><path d="M718.549473 799.180109s32.276812 17.817205 66.540344 8.908603c0 0 15.050139-11.679887 21.66832-18.276977 0 0-44.931077 15.847358-88.208664 9.368374z" fill="#347FAB" p-id="10138"></path><path d="M915.880082 418.177061c37.022161 15.130283 42.155575 88.246626-4.745349 202.995502-46.892488 114.753094-114.926035 195.525267-151.93976 180.386548-37.017943-15.134501-29.007794-120.422204 17.89313-235.17108 46.896706-114.753094 101.761381-163.337035 138.791979-148.21097z" fill="#6CB7E6" p-id="10139"></path><path d="M936.894599 446.779918c19.259791 8.98031 7.896261 45.812658-39.477089 103.153351-112.783246 136.47203-18.108253-6.968282-40.337579 8.697698-22.233544 15.657544-72.913875 82.341303-82.543771 77.853256-19.259791-8.98031 4.517573-62.288511 53.122605-119.068198 48.579724-56.783905 89.976043-79.620636 109.235834-70.636107z" fill="#9EDBFF" p-id="10140"></path><path d="M911.940388 427.819611c7.187623 2.940008 12.793462 9.085762 16.644576 18.264322 13.797367 32.875781 3.922822 95.265525-27.101217 171.153153-35.448814 86.757641-85.487997 157.967409-121.649668 173.152527-6.710979 2.817683-12.325254 3.33229-16.716284 1.539602-27.092781-11.072482-22.756587-108.193966 23.595986-221.593053 46.605658-114.0318 97.577038-153.812592 125.226607-142.516551z m-144.494835 134.632944c-43.075118 105.388937-61.993244 228.392612-12.202929 248.749106 9.688949 3.956567 20.664415 3.425088 32.65644-1.615528 41.497553-17.420705 94.885897-91.553608 132.85291-184.46544 33.588638-82.164143 43.176352-148.599034 27.021074-187.08909-5.981249-14.252921-15.657544-24.443822-27.974362-29.48022-47.276334-19.331499-105.658895 39.645812-152.353133 153.901172z" fill="#6E6E96" p-id="10141"></path><path d="M980.450579 482.009392c32.226195 23.684566 19.411643 95.856058-54.021058 195.736172-73.436918 99.884332-159.06833 161.658236-191.294524 137.973669-32.217759-23.680348 1.176847-123.85151 74.609546-223.735842 73.436918-99.88855 138.484059-133.662784 170.706036-109.973999z" fill="#6CB7E6" p-id="10142"></path><path d="M960.309207 493.92971c19.888287 17.530375 4.175907 62.790463-52.20728 124.488441-134.211135 146.873836-18.825328-14.51866-44.222438-0.409155s-86.20929 87.17945-96.151324 78.414263c-19.888287-17.509285 10.726599-80.860754 68.362558-141.474683 57.652832-60.605493 104.330197-78.540805 124.218484-61.018866z" fill="#9EDBFF" p-id="10143"></path><path d="M974.283734 490.39917c6.263861 4.606152 10.203556 11.928754 11.700977 21.765335 5.373845 35.246346-19.39477 93.354731-67.940749 159.414213-72.563774 98.703267-153.15457 153.082862-176.729466 135.750738-3.813152-2.805029-6.301824-7.862517-7.402745-15.045921-5.917978-38.781104 28.716745-118.604208 84.235224-194.120644 48.567069-66.067918 96.632186-107.046646 131.891187-112.428927 9.815492-1.510076 17.990147 0.063271 24.245572 4.665206z m-172.916314 95.421594c-59.462391 80.86919-94.83528 165.095978-88.044158 209.588374 1.965629 12.856733 7.229803 22.507719 15.657544 28.704091 43.332422 31.863439 138.403915-48.448963 205.842711-140.192384 52.574253-71.51347 78.055725-133.624821 71.753901-174.886161-2.336821-15.282134-9.229177-27.523026-19.94734-35.406634-10.718162-7.883607-24.464912-10.815179-39.73861-8.491012-41.278213 6.301824-92.954013 49.157602-145.524048 120.683726z" fill="#6E6E96" p-id="10144"></path><path d="M1002.477436 557.947636c24.692689 27.607388-0.66224 90.60032-86.268343 167.179714-85.597667 76.570958-175.025358 116.258951-199.722265 88.651563-24.701125-27.607388 24.671599-112.070389 110.269266-188.641347 85.606103-76.583612 151.015999-94.793099 175.721342-67.18993z" fill="#6CB7E6" p-id="10145"></path><path d="M974.891138 565.578158c18.141998 19.162775-2.298858 62.263202-65.241172 117.676229-149.830716 131.937585-17.382742-16.096225-44.327891-4.614589-26.953585 11.490073-95.505956 77.697187-104.570628 68.113691-18.13778-19.158557 19.116376-78.650475 83.218665-132.895092 64.093852-54.210871 112.783246-67.438797 130.921026-48.280239z" fill="#9EDBFF" p-id="10146"></path><path d="M994.720372 564.886392c18.188397 20.339622-0.793001 76.722809-85.454252 152.467021-64.591587 57.775156-134.90712 96.729202-171.009738 94.708738-6.50851-0.362756-11.224333-2.125917-14.004053-5.243084-2.792374-3.100295-4.024056-7.997496-3.657083-14.501788 2.016246-36.106836 48.516452-101.668583 113.099603-159.431085 84.669687-75.735776 142.824472-88.330988 161.025523-67.999802z m-174.91147 52.481455c-69.459261 62.128223-117.676229 131.97133-120.008831 173.797894-0.674894 12.22402 2.332603 22.170272 8.925474 29.547709 6.601308 7.377437 16.142624 11.4732 28.370863 12.156531 41.822346 2.332603 116.59218-37.853125 186.051441-99.97713 85.585013-76.558304 118.950091-146.253777 87.086652-181.875534-31.863439-35.625974-104.836368-10.203556-190.425599 66.35053z" fill="#6E6E96" p-id="10147"></path><path d="M778.889227 623.226772c-15.176682 63.638299-69.484569-52.696578-64.853108-33.833287 3.897514 15.919065 30.943896 84.977608 18.082944 72.129311-47.364914-47.360696-11.131535 54.932165-22.714405 51.405843-51.56613-15.746124-38.144173 30.711901-59.542535 38.928737-37.456625 14.345718-78.515497 14.624112-117.022426 3.46305-103.136478-29.872502-148.944918-165.969122-127.428449-240.262312 21.520687-74.2721 122.569211-110.286138 225.693036-80.409418 103.13226 29.851411 165.716037 113.34847 147.784943 188.578076z" fill="#6CB7E6" p-id="10148"></path><path d="M748.784731 589.887001c-2.551943 8.820023-15.366496-38.401476-53.789063-40.211036-6.516946-1.092485-25.810483-5.011089 10.41446 83.020415 3.433524 8.347597-20.685505-37.595821-24.987955-16.281821-1.598655 7.917352-5.968595 0 6.875484 43.741576 7.63474 26.000297-32.909525-24.545056-32.909526 14.476479 18.125126 39.07637-25.869536 36.58348-36.743767 39.869371-27.666441 2.547725-61.377404-3.825806-89.073372-11.857046-88.03994-25.50678-94.915424-91.254123-94.915424-136.299089 0 0 48.516452-16.273385 93.709051-47.892175-17.467104 11.599743 43.724704-27.075909 54.531446-67.308036 88.027286 25.481472 185.254222 75.326622 166.888666 138.741362z" fill="#9EDBFF" p-id="10149"></path><path d="M768.765815 620.809807c-2.265113 9.520225-4.833929 11.338221-4.850802 11.350876a0.940634 0.940634 0 0 1 0.438682-0.122325c-3.201529-0.046399-11.928754-5.356972-34.470218-40.388196-7.086388-11.000774-11.350876-17.656918-20.090755-13.902819-1.982502 0.852054-8.259017 4.386812-5.871579 14.130596 1.261208 5.175594 4.47961 14.615676 8.187309 25.565834 4.530227 13.333377 12.957967 38.152609 13.029675 43.496927-0.02109-1.586001 1.273863-5.462424 5.378063-7.34791 4.116854-1.885485 7.887825-0.345883 9.073108 0.695984l-0.122325-0.10967c-10.068577-10.072795-21.86657-19.597238-33.05294-13.974527-13.472574 6.778468-10.321662 28.159958-6.980936 50.781566 0.965942 6.559127 2.290422 15.535219 1.944539 18.002801 0.101234-0.793001 0.974378-3.231056 3.652864-4.918291a9.035145 9.035145 0 0 1 7.411181-1.079831c-42.18932-12.894696-52.110263 11.4732-58.05355 26.017169-2.999061 7.343692-5.040616 11.895009-8.271671 13.130909-34.183388 13.101382-72.352869 14.206522-110.395808 3.193093-98.003065-28.383517-140.563576-157.499201-120.316752-227.354962 19.888287-68.649388 115.347844-101.537823 212.785685-73.310375 95.775914 27.700186 157.507637 105.081017 140.57623 176.143151z m-134.767923-196.179071c-108.476578-31.42054-215.506352 7.83299-238.587731 87.521115-22.511938 77.73515 25.114498 221.466511 134.540146 253.161227 42.433969 12.287291 85.175858 10.98812 123.644824-3.758317 11.873919-4.547099 16.433672-15.729251 20.107627-24.71378 5.782999-14.168559 8.685044-21.29291 32.673312-13.96609a11.781121 11.781121 0 0 0 11.203243-2.27355c6.474766-5.567877 5.14185-14.62833 2.4718-32.673312-1.282299-8.701916-3.956567-26.81017-2.0753-31.146365-0.674894 1.581783-3.568503 2.982188-5.221993 2.547726 0.139197 0.033745 3.44196 0.974378 12.021552 9.549752 7.284639 7.284639 13.852202 4.108418 15.703943 2.95688 9.680513-6.027648 6.765814-15.822049-8.625991-61.094792-3.412433-10.051705-6.630835-19.529749-7.676921-23.815327a3.146694 3.146694 0 0 1-0.067489-0.261521c0.514607 2.712231-0.944852 7.782373-5.711292 10.051704-4.770658 2.277768-9.629896 0.215123-11.414147-1.889703 0.788783 0.932198 3.344944 4.901419 5.399153 8.094511 18.0492 28.062942 35.870623 52.991844 55.36241 49.659555 10.283699-1.746289 17.450232-10.81096 21.288692-26.940931 19.496004-81.889967-48.583942-170.182993-155.035838-201.008782z" fill="#6E6E96" p-id="10150"></path><path d="M345.940421 281.405546m-260.660988 0a260.660988 260.660988 0 1 0 521.321975 0 260.660988 260.660988 0 1 0-521.321975 0Z" fill="#6CB7E6" p-id="10151"></path><path d="M545.96217 223.25498c1.885485 35.685027-21.841261 133.397044-23.629731 99.386598-5.458206-103.566723-35.018569 103.575159-43.189006 52.62487-5.3401-33.306026-17.78346 15.682852-27.965926 22.06482-30.568486 19.204956-68.311941 29.758613-107.91979 31.800168-117.625612 6.095138-217.568997-76.19133-223.238108-183.8032-5.652238-107.616088 85.099932-199.785537 202.717108-205.880674 117.625612-6.099356 217.564779 76.199766 223.225453 183.807418z" fill="#9EDBFF" p-id="10152"></path><path d="M269.588804 206.146414c4.87611 15.590055-0.130761 34.339457-11.177935 41.809692-11.047173 7.482889-23.967178 0.88158-28.855942-14.742219-4.892982-15.606927 0.118106-34.352112 11.177934-41.826564 11.064046-7.466016 23.971396-0.906889 28.855943 14.759091z" fill="#6E6E96" p-id="10153"></path><path d="M345.940421 31.154801c137.986324 0 250.246527 112.264421 250.246527 250.250745s-112.251767 250.250746-250.246527 250.250746c-137.986324 0-250.250746-112.264421-250.250746-250.250746S207.954097 31.154801 345.940421 31.154801zM74.869191 281.405546c0 149.472179 121.603269 271.075448 271.075448 271.075448s271.075448-121.603269 271.075448-271.075448c0-149.480615-121.603269-271.079666-271.075448-271.079666-149.476397 0-271.075448 121.607487-271.075448 271.079666z" fill="#6E6E96" p-id="10154"></path><path d="M190.107365 407.868053c-25.818919 17.07904-124.302846 51.359444-144.19535 42.315862-17.488194-7.94266 29.332586-92.245374 77.005421-123.779802 0 0 34.234005-29.357895 72.10822 6.525382 30.311183 48.579724-4.918291 74.938558-4.918291 74.938558z" fill="#FFDC6E" p-id="10155"></path><path d="M184.362329 399.183009c-28.923432 19.124813-120.443295 47.453494-134.147864 41.518644 1.526948 0.691766 2.315731 2.020464 2.442273 2.51398-3.146694-12.392744 33.483185-79.996046 76.009952-108.126476l0.539915-0.358538 0.493517-0.426027c2.762848-2.298858 28.337118-22.085911 58.171656 6.1795l-1.674581-2.045773c24.958429 40.00435-1.202155 60.246956-2.324167 61.090573l0.489299-0.345883z m17.825641-73.812328c-35.34758-33.483185-71.741247-19.137467-86.044784-6.867048l1.033431-0.788782C73.418169 346.663591 29.655502 416.856799 31.84469 444.438879c0.77191 9.743784 6.449457 13.721441 9.764875 15.218863 26.586611 12.076387 132.173798-28.518495 154.242836-43.113081l0.253085-0.168724 0.24465-0.181378c14.835017-11.09779 35.499432-43.939826 7.516633-88.786541l-0.704421-1.138884-0.974378-0.898453z" fill="#6E6E96" p-id="10156"></path><path d="M50.214465 440.701653S189.542141 387.444069 187.86756 340.48831c0 0 35.178857 50.811092-3.505231 70.817485-38.684088 20.006393-134.147864 54.662207-134.147864 29.395858z" fill="#6E6E96" opacity=".15" p-id="10157"></path><path d="M536.834227 830.149314s-34.035755 32.825164-43.189006 120.970556" fill="#FFBB3F" p-id="10158"></path><path d="M504.135606 952.203918l-20.980771-2.176533c9.4443-90.929331 44.855152-126.023826 46.361009-127.474848l14.640985 15.185118-7.318384-7.592559 7.373219 7.537724c-0.320575 0.316357-31.517556 32.112307-40.076058 114.521098z" fill="#6E6E96" p-id="10159"></path><path d="M522.197461 814.968414c-4.053583 3.90595-39.856717 40.860622-49.528794 133.970704a21.090442 21.090442 0 0 0 41.957325 4.357285c8.132474-78.300374 36.570826-107.692014 36.84922-107.978844a21.086224 21.086224 0 1 0-29.277751-30.349145z" fill="#FFBB3F" p-id="10160"></path><path d="M493.674747 982.75975c-1.088267 0-2.189188-0.059053-3.294327-0.172941-17.348997-1.805342-29.994826-17.38696-28.202139-34.73174 10.064359-96.885271 48.364601-136.299089 52.700796-140.479214a31.483811 31.483811 0 0 1 21.95515-8.862204c8.668172 0 16.754247 3.433524 22.769241 9.676295 5.863143 6.069829 9.014055 14.075761 8.862204 22.524592s-3.589593 16.332438-9.672077 22.199799c0.004218 0.008436-26.08044 28.261192-33.681435 101.474551a31.547083 31.547083 0 0 1-31.437413 28.370862z m43.15948-163.155657a10.50304 10.50304 0 0 0-7.318383 2.952662c-1.505858 1.45524-36.908273 36.503337-46.356791 127.47063a10.566311 10.566311 0 0 0 9.402119 11.58287 10.536785 10.536785 0 0 0 11.574434-9.402119c8.478358-81.636882 38.553328-112.998369 39.831409-114.293322 2.214496-2.142789 3.361816-4.770658 3.416651-7.584122a10.435551 10.435551 0 0 0-2.952662-7.499762 10.473513 10.473513 0 0 0-7.596777-3.226837z" fill="#6E6E96" p-id="10161"></path><path d="M429.192831 995.768335c-0.097016 0.10967-0.042181 0.059053-0.143415 0.160287 4.795966-5.175594 49.157602-48.925607 128.833072 7.541942a21.086224 21.086224 0 0 0 29.404294-5.011089 21.103096 21.103096 0 0 0-5.011089-29.408512c-90.186947-63.89982-160.198777-28.788453-184.625727-1.303389a21.090442 21.090442 0 0 0 1.763161 29.775485 21.090442 21.090442 0 0 0 29.779704-1.754724z" fill="#FFBB3F" p-id="10162"></path><path d="M570.064327 1017.904862a31.42054 31.42054 0 0 1-18.281195-5.833616c-24.93312-17.669572-48.411-26.628792-69.767181-26.628792-26.679409 0-41.708458 13.970309-44.964822 17.370088l-0.324793 0.341665a31.673625 31.673625 0 0 1-23.313374 10.245737 31.580827 31.580827 0 0 1-21.00608-7.993277 31.403668 31.403668 0 0 1-10.566311-21.777991 31.416322 31.416322 0 0 1 7.925788-22.878911c16.433672-18.500535 49.313671-38.262279 92.300209-38.262279 34.984825 0 70.749996 12.772372 106.304263 37.962795 14.227612 10.102322 17.597865 29.885156 7.516633 44.10855a31.698934 31.698934 0 0 1-25.823137 13.346031z m-88.048376-53.557067c25.814701 0 53.392562 10.266827 81.965893 30.513651 4.623025 3.277455 11.468982 2.066863 14.704256-2.505545a10.570529 10.570529 0 0 0-2.513981-14.708474c-31.90562-22.604735-63.57081-34.073718-94.101333-34.073718-36.005602 0-63.140564 16.104661-76.537213 31.18011a10.477731 10.477731 0 0 0-2.640523 7.626303c0.164505 2.813465 1.417278 5.390717 3.522103 7.263548 4.201216 3.737226 11.177934 3.298545 14.889852-0.877362l0.15607 0.134979-0.151852-0.143415 0.118107-0.126543c3.800498-4.057801 24.553492-24.283535 60.588621-24.283534z" fill="#6E6E96" p-id="10163"></path><path d="M293.264934 297.581915c0 12.42227-18.255886 14.058888-40.776261 14.058888s-40.77626-1.636618-40.77626-14.058888c0-12.426488 18.255886-22.495065 40.77626-22.495065s40.77626 10.068577 40.776261 22.495065z" fill="#FFFFFF" opacity=".45" p-id="10164"></path><path d="M792.4082 273.678008m-29.526618 0a29.526618 29.526618 0 1 0 59.053237 0 29.526618 29.526618 0 1 0-59.053237 0Z" fill="#9EDBFF" opacity=".41" p-id="10165"></path><path d="M90.796693 696.895685m-16.872354 0a16.872353 16.872353 0 1 0 33.744707 0 16.872353 16.872353 0 1 0-33.744707 0Z" fill="#9EDBFF" p-id="10166"></path><path d="M706.64181 390.379859m-14.058889 0a14.058888 14.058888 0 1 0 28.117777 0 14.058888 14.058888 0 1 0-28.117777 0Z" fill="#9EDBFF" p-id="10167"></path><path d="M165.688851 878.644675m-37.591603 0a37.591603 37.591603 0 1 0 75.183207 0 37.591603 37.591603 0 1 0-75.183207 0Z" fill="#9EDBFF" opacity=".41" p-id="10168"></path></svg>