<svg width="1920" height="1080" viewBox="0 0 1920 1080" xmlns="http://www.w3.org/2000/svg">
  <!-- 背景 -->
  <rect width="1920" height="1080" fill="#f8f9fa"/>
  <circle cx="500" cy="300" r="600" fill="#f9ebea" opacity="0.4"/>
  <circle cx="1400" cy="700" r="400" fill="#f9ebea" opacity="0.3"/>
  
  <!-- 老虎身体 -->
  <ellipse cx="1000" cy="600" rx="700" ry="350" fill="#f39c12"/>
  
  <!-- 老虎条纹 - 身体 -->
  <path d="M300 500 Q500 450 700 500" fill="none" stroke="#34495e" stroke-width="80"/>
  <path d="M400 600 Q600 550 800 600" fill="none" stroke="#34495e" stroke-width="60"/>
  <path d="M500 700 Q700 650 900 700" fill="none" stroke="#34495e" stroke-width="70"/>
  <path d="M1100 500 Q1300 450 1500 500" fill="none" stroke="#34495e" stroke-width="70"/>
  <path d="M1200 600 Q1400 550 1600 600" fill="none" stroke="#34495e" stroke-width="60"/>
  <path d="M1300 700 Q1500 650 1700 700" fill="none" stroke="#34495e" stroke-width="80"/>
  
  <!-- 老虎头部 -->
  <circle cx="600" cy="450" r="200" fill="#f39c12"/>
  
  <!-- 老虎耳朵 -->
  <path d="M450 300 L400 200 L420 300 Z" fill="#f39c12"/>
  <path d="M450 300 L400 200 L420 300 Z" fill="#34495e" opacity="0.2"/>
  <path d="M750 300 L800 200 L780 300 Z" fill="#f39c12"/>
  <path d="M750 300 L800 200 L780 300 Z" fill="#34495e" opacity="0.2"/>
  
  <!-- 老虎眼睛 -->
  <circle cx="550" cy="400" r="25" fill="#2c3e50"/>
  <circle cx="650" cy="400" r="25" fill="#2c3e50"/>
  <circle cx="555" cy="395" r="8" fill="white"/>
  <circle cx="655" cy="395" r="8" fill="white"/>
  
  <!-- 老虎鼻子 -->
  <ellipse cx="600" cy="460" rx="35" ry="25" fill="#e67e22"/>
  
  <!-- 老虎嘴巴 -->
  <path d="M570 490 Q600 520 630 490" fill="none" stroke="#34495e" stroke-width="8"/>
  
  <!-- 老虎胡须 -->
  <path d="M570 480 L500 470" fill="none" stroke="#34495e" stroke-width="5"/>
  <path d="M570 490 L500 490" fill="none" stroke="#34495e" stroke-width="5"/>
  <path d="M570 500 L500 510" fill="none" stroke="#34495e" stroke-width="5"/>
  <path d="M630 480 L700 470" fill="none" stroke="#34495e" stroke-width="5"/>
  <path d="M630 490 L700 490" fill="none" stroke="#34495e" stroke-width="5"/>
  <path d="M630 500 L700 510" fill="none" stroke="#34495e" stroke-width="5"/>
  
  <!-- 老虎条纹 - 头部 -->
  <path d="M400 450 Q450 420 500 450" fill="none" stroke="#34495e" stroke-width="30"/>
  <path d="M700 450 Q750 420 800 450" fill="none" stroke="#34495e" stroke-width="30"/>
  
  <!-- 前腿 -->
  <ellipse cx="450" cy="750" rx="60" ry="150" fill="#f39c12"/>
  <ellipse cx="700" cy="750" rx="60" ry="150" fill="#f39c12"/>
  
  <!-- 后腿 -->
  <ellipse cx="1200" cy="750" rx="60" ry="150" fill="#f39c12"/>
  <ellipse cx="1450" cy="750" rx="60" ry="150" fill="#f39c12"/>
  
  <!-- 腿上的条纹 -->
  <path d="M450 750 Q450 800 450 850" fill="none" stroke="#34495e" stroke-width="30"/>
  <path d="M700 750 Q700 800 700 850" fill="none" stroke="#34495e" stroke-width="30"/>
  <path d="M1200 750 Q1200 800 1200 850" fill="none" stroke="#34495e" stroke-width="30"/>
  <path d="M1450 750 Q1450 800 1450 850" fill="none" stroke="#34495e" stroke-width="30"/>
  
  <!-- 尾巴 -->
  <path d="M1700 600 Q1800 550 1850 450" fill="none" stroke="#f39c12" stroke-width="50" stroke-linecap="round"/>
  <path d="M1750 550 Q1800 500 1830 470" fill="none" stroke="#34495e" stroke-width="25"/>
  <path d="M1800 500 Q1820 480 1840 460" fill="none" stroke="#34495e" stroke-width="25"/>
</svg>