<?xml version="1.0" standalone="no"?><!DOCTYPE svg PUBLIC "-//W3C//DTD SVG 1.1//EN" "http://www.w3.org/Graphics/SVG/1.1/DTD/svg11.dtd"><svg t="1765414634032" class="icon" viewBox="0 0 1024 1024" version="1.1" xmlns="http://www.w3.org/2000/svg" p-id="21682" xmlns:xlink="http://www.w3.org/1999/xlink" width="200" height="200"><path d="M711.701211 277.470413m-260.535599 0a260.535599 260.535599 0 1 0 521.071198 0 260.535599 260.535599 0 1 0-521.071198 0Z" fill="#FFDB27" p-id="21683"></path><path d="M815.91545 1023.904905h-607.916398A151.110647 151.110647 0 0 1 51.677693 878.439195V161.966297A151.110647 151.110647 0 0 1 207.999052 16.934814a26.05356 26.05356 0 1 1 0 51.672894 99.437754 99.437754 0 0 0-104.214239 93.358589v716.472898a99.437754 99.437754 0 0 0 104.214239 93.792816h607.916398a99.437754 99.437754 0 0 0 104.21424-93.792816V161.966297a99.437754 99.437754 0 0 0-104.21424-93.358589H408.611464A25.619334 25.619334 0 0 1 382.99213 43.4226a25.185108 25.185108 0 0 1 25.619334-26.487786h407.303986a151.544873 151.544873 0 0 1 156.32136 145.031483v716.472898a151.544873 151.544873 0 0 1-156.32136 145.46571z" fill="#231815" p-id="21684"></path><path d="M177.169007 262.272503m30.395819 0l547.124759 0q30.39582 0 30.395819 30.39582l0 0q0 30.39582-30.395819 30.39582l-547.124759 0q-30.39582 0-30.395819-30.39582l0 0q0-30.39582 30.395819-30.39582Z" fill="#231815" p-id="21685"></path><path d="M177.169007 441.173614m30.395819 0l373.434359 0q30.39582 0 30.39582 30.39582l0 0q0 30.39582-30.39582 30.39582l-373.434359 0q-30.39582 0-30.395819-30.39582l0 0q0-30.39582 30.395819-30.39582Z" fill="#231815" p-id="21686"></path><path d="M311.34484 34.73808m-34.73808 0a34.73808 34.73808 0 1 0 69.47616 0 34.73808 34.73808 0 1 0-69.47616 0Z" fill="#231815" p-id="21687"></path><path d="M298.723668 684.215067m21.493091-21.49309l0 0q21.49309-21.49309 42.98618 0l141.240309 141.240308q21.49309 21.49309 0 42.986181l0 0q-21.49309 21.49309-42.986181 0l-141.240308-141.240308q-21.49309-21.49309 0-42.986181Z" p-id="21688"></path><path d="M810.205134 456.99614m21.49309 21.49309l0 0q21.49309 21.49309 0 42.986181l-325.466797 325.466797q-21.49309 21.49309-42.98618 0l0 0q-21.49309-21.49309 0-42.986181l325.466797-325.466797q21.49309-21.49309 42.98618 0Z" p-id="21689"></path></svg>