<?xml version="1.0" standalone="no"?><!DOCTYPE svg PUBLIC "-//W3C//DTD SVG 1.1//EN" "http://www.w3.org/Graphics/SVG/1.1/DTD/svg11.dtd"><svg t="1765023655015" class="icon" viewBox="0 0 1024 1024" version="1.1" xmlns="http://www.w3.org/2000/svg" p-id="16716" xmlns:xlink="http://www.w3.org/1999/xlink" width="200" height="200"><path d="M326.8 674.4c-16.4-16.4-81.7-23.5-100.6 2.5s17.4 51.4 40.5 47.7c23.2-3.6 83.9-26.5 60.1-50.2z" fill="#FFC603" p-id="16717"></path><path d="M261.9 731c-16 0-34-9.6-42.3-23.2-6.9-11.2-6.3-23.5 1.7-34.5 5.6-7.7 17.7-17.3 43.5-19.3 26-2.1 55.1 5 66.2 16.1 8.2 8.2 7.9 16.1 6.3 21.3-3.1 9.5-13.5 18.4-30.9 26.6-14.2 6.7-29.7 11.1-38.7 12.5-2 0.4-3.9 0.5-5.8 0.5z m12.3-65.3c-2.8 0-5.7 0.1-8.5 0.3-16.6 1.3-28.9 6.4-34.7 14.4-5.1 7-5.5 14.1-1.2 21.1 6.8 11.1 23.6 19.1 35.9 17.2 20.8-3.3 55.9-18.1 60.1-31 0.7-2.1 0.9-5-3.3-9.1-6.8-6.7-26.8-12.9-48.3-12.9z" fill="#91000A" p-id="16718"></path><path d="M243.2 693c-2.7 0-5.2-1.9-5.8-4.7-0.7-3.2 1.3-6.4 4.5-7.2l46.2-10.4c3.2-0.7 6.4 1.3 7.2 4.5 0.7 3.2-1.3 6.4-4.5 7.2l-46.2 10.4c-0.5 0.2-0.9 0.2-1.4 0.2zM262.8 709.2c-2.5 0-4.8-1.6-5.7-4.1-1.1-3.1 0.6-6.5 3.7-7.6l40.4-13.9c3.1-1.1 6.5 0.6 7.6 3.7 1.1 3.1-0.6 6.5-3.7 7.6l-40.4 13.9c-0.5 0.3-1.2 0.4-1.9 0.4z" fill="#91000A" p-id="16719"></path><path d="M802.5 627.7c0.4-13.2-0.3-24.7-0.8-31.7 16.7-1.3 45.4-1 70.9 11.3 64.7 31.2 44.6 89.4 0 128.2-12.3 10.7-23.7 18.2-36.8 23.6-23.9 3.1-43.9-4.5-53.4-17.7l0.1-0.1c-0.6-8.7-2.7-16.5-5.5-23.3 1-5.8 3.5-12 7.8-18.2 3-4.4 5.6-9.3 7.7-14.6 3.6-9 6-19 7.6-29.1 1.5-9.8 2.2-19.5 2.4-28.4z" fill="#FFEB00" p-id="16720"></path><path d="M782.4 741.3c9.4 13.2 29.5 20.9 53.4 17.7-11.3 4.7-23.9 7.7-39.4 9.9-17.1 2.4-40.4 3.5-42.7-21.9-1.8-20.1-15-36.9-15-36.9l-3-0.2c7.8-6.7 14.8-14 20.9-22.1l0.5 0.4s12.4 11.1 19.9 29.8c-1.4 8.6 0.6 16.7 5.4 23.3zM801.7 596c0.6 7 1.2 18.5 0.8 31.7-11.4-1.9-18.8-1.9-18.8-1.9l-0.5-0.1c0.2-1.1 0.4-2.2 0.5-3.4 1.2-8.2 1.8-16.4 1.9-24.6h2c-0.1 0 5.4-1.1 14.1-1.7z" fill="#FFC603" p-id="16721"></path><path d="M802.5 627.7c-0.2 8.9-0.9 18.6-2.4 28.3-11.9-5.1-21-7.1-21-7.1l-1.5-0.5c2.4-7.2 4.3-14.8 5.6-22.7l0.5 0.1c0-0.1 7.4-0.1 18.8 1.9z" fill="#FFC603" p-id="16722"></path><path d="M769.3 667.7c3.2-6.1 5.9-12.6 8.2-19.4l1.5 0.5s9.2 2.1 21 7.1c-1.5 10.1-3.9 20.1-7.6 29.1-11.3-11.3-22.7-16.6-22.7-16.6l-0.7-0.4c0.2 0 0.2-0.2 0.3-0.3z" fill="#FFC603" p-id="16723"></path><path d="M769.8 668.5s11.4 5.3 22.7 16.6c-2.1 5.3-4.6 10.2-7.7 14.6-4.3 6.3-6.8 12.4-7.8 18.2-7.5-18.6-19.9-29.8-19.9-29.8l-0.5-0.4c4.7-6.1 8.9-12.7 12.5-19.6l0.7 0.4z" fill="#FFC603" p-id="16724"></path><path d="M785.4 587.6c0.1 3.3 0.2 6.7 0.1 10-0.1 8.2-0.7 16.4-1.9 24.6-0.2 1.1-0.3 2.3-0.5 3.4-1.3 7.9-3.2 15.5-5.6 22.7-2.3 6.8-5 13.2-8.2 19.4-8.7 10.3-20.2 19.8-33 28.4 8.5-21.9 4.7-42.6 4.7-42.6l-0.4-1c20.3-8.1 41.2-26.9 44.3-64.8l0.5-0.1z" fill="#FF2B3F" p-id="16725"></path><path d="M700 654.3c-7.3 12.3-16.5 20.8-26.3 26.3-30.4 17.3-66.5 7.1-68.9 1 26.4-23 26.4-58.2 26.4-58.2l-2.8-1.4c4.4-2 8.9-4.6 13.2-7.8 2.6-2 5.1-4 7.3-6.1l3 0.3c34.7 7.5 63.6-7.6 76.7-25.6l3 1.3s32.3 6.9 49.7-28.9c0-0.1 0.1-0.2 0.1-0.3 2.2 10.8 3.5 21.7 3.9 32.7h-0.6c-3.1 38-24 56.7-44.3 64.8-18.4 7.4-36.3 6-40 2.1l-0.4-0.2z" fill="#FF2B3F" p-id="16726"></path><path d="M782.5 741.2l-0.1 0.1c-4.7-6.6-6.8-14.7-5.4-23.4 2.8 6.8 4.9 14.6 5.5 23.3z" fill="#FFEB43" p-id="16727"></path><path d="M729.1 424.9c-8.3-11.1-17.2-21.9-26.5-32.1-3.7-4.1-7.5-8-11.3-11.8-5.6-5.6-11.5-10.9-17.5-15.9-10.8-9-22.1-17-33.3-24.1-12.7-8-25.3-14.8-36.8-20.4-15.4-7.5-28.9-12.9-38.2-16.3-6.4-2.3-10.9-3.7-12.7-4.1-9.2-2.3-20.8-1.2-9.2-12.7s53.1-27.7 53.1-27.7C679.8 276 825 444.2 781.6 555c-0.8-3.8-1.6-7.5-2.6-11.3 3.3-21.9-9-54.9-29.5-88.7-6.2-10.1-13-20.2-20.4-30.1z" fill="#FFEB00" p-id="16728"></path><path d="M778.9 543.7c1 3.8 1.8 7.5 2.6 11.3 0 0.1-0.1 0.2-0.1 0.3-17.3 35.8-49.7 28.9-49.7 28.9l-3-1.3c3-4.1 5.2-8.4 6.4-12.5 9.2-31.2-5.8-72.7-5.8-72.7l-2.6-1.7c8.9-6 16.4-14.2 19.7-25.5 15 23.2 26 47.9 32.5 73.2z" fill="#FF2B3F" p-id="16729"></path><path d="M746.6 470.3c-2.7-4.3-5.6-8.5-8.5-12.7l0.6-0.4s4.9-2 10.8-2.2c20.5 33.8 32.8 66.9 29.5 88.7-6.6-25.3-17.6-50-32.4-73.4z" fill="#FFC603" p-id="16730"></path><path d="M769.3 667.7c-0.1 0.1-0.1 0.3-0.2 0.4-3.6 6.9-7.8 13.5-12.5 19.6-6.1 8-13.2 15.4-20.9 22.1-6.3 5.4-13 10.3-20.2 14.9 10.5-8.5 16.9-18.7 20.8-28.6 12.8-8.6 24.3-18.1 33-28.4z" fill="#C62020" p-id="16731"></path><path d="M740.9 653.4s3.9 20.8-4.7 42.6c-22.7 15.2-49.6 27.3-72.2 35.2 22-24.3 9.9-50.1 9.9-50.1l-0.3-0.5c9.8-5.6 19-14 26.3-26.3l0.5 0.3c3.7 3.8 21.6 5.2 40-2.1l0.5 0.9zM738 457.6c3 4.2 5.8 8.5 8.5 12.7-3.3 11.3-10.9 19.5-19.7 25.5-19.7 13.4-45.9 15.6-45.9 15.6l-2-0.2c3.6-3.8 6.7-8.3 9-13.7 17.3-41.6-10.4-68.1-10.4-68.1l-0.3-0.4c10.7-9.4 14.2-21.6 14.2-21.6l1.4-1.5c8.3 7.7 16.1 15.7 23.4 24 7.8 9 15.1 18.2 21.8 27.7z" fill="#FF2B3F" p-id="16732"></path><path d="M749.4 454.9c-5.9 0.2-10.8 2.2-10.8 2.2l-0.6 0.4c-6.7-9.5-14-18.7-21.9-27.6l0.6-0.5s5.2-3.5 12.4-4.6c7.4 10 14.2 20.1 20.3 30.1z" fill="#FFC603" p-id="16733"></path><path d="M729.4 497.6s15 41.6 5.8 72.7c-1.2 4.2-3.4 8.4-6.4 12.5-13.1 17.9-42 33.1-76.7 25.6l-3-0.3c43.2-39.4 15.5-85.3 11.1-84l-0.3-0.7c7-2.7 13.6-6.6 19-12.2l2 0.2s26.2-2.2 45.9-15.6l2.6 1.8z" fill="#FF2B3F" p-id="16734"></path><path d="M664.1 731.3c22.6-7.9 49.5-20 72.2-35.2-3.9 9.9-10.3 20.1-20.8 28.6-9.4 6-19.6 11.2-30.3 15.8-22.6 9.6-47.8 16.2-74.4 19.9 27.1-7.9 43.5-18.3 53.3-29.1z" fill="#D8000F" p-id="16735"></path><path d="M729.1 424.9c-7.2 1.1-12.4 4.6-12.4 4.6l-0.6 0.5c-7.3-8.3-15.1-16.3-23.4-24-2.4-2.2-4.8-4.4-7.2-6.5 0 0 7.1-4.8 17.1-6.7 9.3 10.1 18.3 21 26.5 32.1z" fill="#FFC603" p-id="16736"></path><path d="M691.3 380.9c3.8 3.8 7.6 7.8 11.3 11.8-10 1.8-17.1 6.7-17.1 6.7-9.7-8.6-20-16.7-30.7-24.4l0.7-1s7.5-5.8 18.3-9c6 5 11.9 10.3 17.5 15.9z" fill="#FFC603" p-id="16737"></path><path d="M677.1 429.1l0.3 0.4s27.7 26.6 10.4 68.1c-2.3 5.4-5.3 10-9 13.7-5.4 5.6-12 9.5-19 12.2l0.3 0.7c4.4-1.3 32.1 44.6-11.1 84-2.3 2-4.7 4.1-7.3 6.1-4.3 3.3-8.7 5.8-13.2 7.8-34.8 15.6-71.1-4.4-71.1-4.4l-0.6-0.6c3.3-2.9 6.6-6.3 9.7-10.2 26.7-33 16.3-65.4 16.3-65.4l-0.2-0.4c10.6-6 19.6-15.3 25.6-28.4 19.2-41.7-13.1-68.6-13.9-69.3l-3.1-0.9c10.6-3.5 20.6-11.1 27.3-25.7 19.2-41.5-23.1-76.2-23.1-76.2l0.2-0.4c8.4 4 16.6 8.3 24.5 12.8 12 6.8 23.6 14.2 34.6 22.1 10.8 7.7 21 15.9 30.7 24.4 2.4 2.2 4.8 4.3 7.2 6.5l-1.4 1.5c0.1 0-3.4 12.1-14.1 21.6z" fill="#FF2B3F" p-id="16738"></path><path d="M496.9 760.8c38.3 4.7 77.4 4.8 113.9-0.4 26.6-3.8 51.8-10.3 74.4-19.9l0.3 0.7c-42.7 60-138.6 64.9-159.3 63.5-33.5-2.3-43.9-45-43.9-45l0.1-0.9c4.8 0.7 9.7 1.4 14.5 2z" fill="#FFC603" p-id="16739"></path><path d="M674 681.2s12.1 25.8-9.9 50.1c-5.9 2.1-11.5 3.8-16.6 5.3-16.7 4.8-44.9 6.6-77.3 5.8 16.2-9.8 25-24.7 11.5-47.3 9.4-3.4 17-8.1 23.2-13.5 2.4 6.2 38.4 16.4 68.9-1l0.2 0.6z" fill="#FF2B3F" p-id="16740"></path><path d="M673.8 365c-10.8 3.2-18.3 9-18.3 9l-0.7 1c-11-7.9-22.6-15.2-34.6-22.1 1.9-1.7 9.2-7.7 20.3-12 11.1 7.1 22.4 15.1 33.3 24.1z" fill="#FFC603" p-id="16741"></path><path d="M647.4 736.6c5.2-1.5 10.8-3.3 16.6-5.3-9.7 10.8-26.2 21.3-53.2 29.1-36.5 5.2-75.6 5.1-113.9 0.4 6.1-0.4 48.4-3.4 73.2-18.4 32.4 0.8 60.6-1 77.3-5.8z" fill="#D8000F" p-id="16742"></path><path d="M581.6 695.1c-19.1 6.9-45.5 8.6-82-0.1l-0.2-0.5c44-20.8 31.4-61.8 31.4-61.8l-0.2-0.7c8.9-2.8 17.8-7.5 26.2-15l0.6 0.6s36.3 20 71.1 4.4l2.8 1.4s0 35.2-26.4 58.2c-6.3 5.4-13.9 10.1-23.3 13.5z" fill="#FF2B3F" p-id="16743"></path><path d="M640.4 341c-11.1 4.3-18.4 10.4-20.3 12-8-4.5-16.2-8.8-24.5-12.8l-8.4-3.9 0.1-0.3s5-8.4 16.3-15.4c11.6 5.6 24.1 12.3 36.8 20.4z" fill="#FFC603" p-id="16744"></path><path d="M595.5 340.5s42.3 34.8 23.1 76.2c-6.8 14.6-16.8 22.2-27.3 25.7-23.6 7.8-50-4.9-50-4.9l-2.3-0.2c9.1-92-44-130.3-44-130.3l0.1-0.1c9.6 1.9 19.6 4.2 30 7 8.5 2.3 16.9 4.8 25.2 7.6 12.7 4.3 25.1 9.2 37.1 14.6l8.4 3.9-0.3 0.5z" fill="#FF2B3F" p-id="16745"></path><path d="M594.3 443.3c0.8 0.6 33 27.6 13.9 69.3-6 13.1-15.1 22.4-25.6 28.4-22.3 12.7-51.4 10.7-72.7-1.9l-0.8-0.3c4.9-10.4 9.5-21.5 13.7-33.2 9.2-25.5 14.2-48.2 16.2-68.3l2.3 0.2s26.4 12.7 50 4.9l3 0.9z" fill="#FF2B3F" p-id="16746"></path><path d="M603.7 320.5c-11.3 6.9-16.3 15.4-16.3 15.4l-0.1 0.3c-12-5.4-24.4-10.3-37.1-14.6l0.2-0.7s5.3-8.4 15-16.7c9.4 3.4 22.9 8.8 38.3 16.3z" fill="#FFC603" p-id="16747"></path><path d="M495.1 307c1.8-2.4 44-58.5 101.6-47.3 0 0-41.6 16.2-53.1 27.7s0 10.4 9.2 12.7c1.8 0.5 6.3 1.8 12.7 4.1-9.7 8.2-15 16.7-15 16.7l-0.2 0.7c-8.3-2.8-16.7-5.3-25.2-7.6-10.4-2.8-20.4-5.1-30-7z" fill="#FFC603" p-id="16748"></path><path d="M582.8 541.4s10.4 32.3-16.3 65.4c-3.1 3.9-6.4 7.3-9.7 10.2-8.4 7.4-17.3 12.2-26.2 15-37.3 11.7-75.2-10.4-76-10.9l-0.1-0.1c20.1-21.8 38.9-48.9 54.5-82.2l0.8 0.3c21.3 12.5 50.4 14.6 72.7 1.9l0.3 0.4zM581.6 695.1c13.4 22.6 4.6 37.5-11.5 47.3-34.5-0.9-73.8-4.7-109.3-11.2 18.9-11.3 16.9-29.2 16.9-29.2l-0.1-0.3c4.9-1 10-2.4 15.1-4.3 2.4-0.9 4.6-1.8 6.7-2.8l0.2 0.5c36.6 8.6 63 6.9 82 0z" fill="#FF2B3F" p-id="16749"></path><path d="M570.1 742.3c-24.8 15-67.1 18.1-73.2 18.4-4.8-0.6-9.7-1.2-14.5-2-9-1.4-17.9-3-26.7-4.9-15.8-3.4-31.1-7.4-45.6-12.1l0.6-1.8c24.6 1.2 40.2-2.9 50.1-8.9 35.5 6.6 74.8 10.5 109.3 11.3z" fill="#D8000F" p-id="16750"></path><path d="M389.4 347.2c-22.4 10.7-55.1 37.1-43.3 97.2 11 56.7 88.9 71.6 120.1 48.5 22.3-16.5 41.5-41.8 40.6-69.6 0.7-4 1-8.2 1-12.4 0-41.5-33.6-75.1-75.1-75.1-10.3 0-20.1 2.1-29.1 5.9-3.5 1.1-8.5 2.8-14.2 5.5z m-4.1 327.1c-13.8 7.1-27.4 12.1-40.1 15.3-31.3-19-54.4-40.7-66.4-57.3-20.8-28.9-11-68.1 4.7-98.9 17.6-34.5 18.8-91.7 18.7-110.5 6.7-32.7 4.4-61-11.1-81.9l0.6-0.5s60.8-61.9 203.3-33.6c0 0.1-0.1 0.1-0.1 0.1s53.1 38.2 43.9 130.3c-2 20.1-7 42.9-16.2 68.3-4.2 11.7-8.8 22.7-13.7 33.2-15.6 33.3-34.4 60.5-54.5 82.2-22.1 24.1-46 41.5-69.1 53.3z" fill="#FFEB00" p-id="16751"></path><path d="M530.8 632.7s12.6 41-31.4 61.8c-2.1 1-4.3 1.9-6.7 2.8-5.1 1.9-10.1 3.3-15.1 4.3-51 10.2-91-26.2-92.3-27.4 23.1-11.8 46.9-29.2 69.2-53.2l0.1 0.1c0.8 0.4 38.7 22.6 76 10.9l0.2 0.7z" fill="#FF2B3F" p-id="16752"></path><path d="M403.6 341.8c8.9-3.8 18.8-5.9 29.1-5.9 41.5 0 75.1 33.6 75.1 75.1 0 4.2-0.3 8.4-1 12.4-0.5 2.7-1.1 5.4-1.8 8-33.2 59.5-106 34.4-123.1 1.5-14.3-27.7-2.1-64 5.9-82.1 4.8-3.6 10.1-6.7 15.8-9z" fill="#FFFFFF" p-id="16753"></path><path d="M504.9 431.4c0.7-2.6 1.3-5.3 1.8-8 1 27.8-18.3 53.1-40.6 69.6-31.2 23.1-109 8.2-120.1-48.5-11.7-60.2 21-86.5 43.3-97.2-0.5 1.1-1.1 2.3-1.6 3.6-18.3 13.7-30.2 35.5-30.2 60.2 0 38.6 34.9 75.1 75.1 75.1 34.4-0.2 63.4-23.3 72.3-54.8z" fill="#FFC603" p-id="16754"></path><path d="M504.9 431.4C496 462.9 467 486 432.7 486c-40.1 0-75.1-36.5-75.1-75.1 0-24.6 11.9-46.5 30.2-60.2-8 18.2-20.3 54.4-5.9 82.1 17 33 89.8 58.1 123-1.4z" fill="#D3D3D3" p-id="16755"></path><path d="M477.7 701.9s2 17.9-16.9 29.2c-11.8-2.1-23.3-4.6-33.9-7.3-30.9-7.9-58.5-20.3-81.6-34.4 12.7-3.2 26.3-8.2 40.1-15.3 1.3 1.2 41.3 37.6 92.3 27.4v0.4z" fill="#FF2B3F" p-id="16756"></path><path d="M426.9 723.9c10.7 2.7 22.1 5.1 33.9 7.3-9.9 5.9-25.5 10.1-50.1 8.9l-0.6 1.8c-37.7-12-70.9-27.8-99.1-45.5l1.5-2.4c9.9 0 21-1.4 32.7-4.3 23.2 13.8 50.8 26.3 81.7 34.2z" fill="#FF4A4A" p-id="16757"></path><path d="M389.4 347.2c5.7-2.7 10.7-4.4 14.2-5.5-5.6 2.4-10.9 5.4-15.8 9 0.5-1.2 1.1-2.4 1.6-3.5z" fill="#FFEB43" p-id="16758"></path><path d="M217.2 573.7c25.1-15.9 48.9-53.3 63.1-85.4 10.2-23 17.9-45.1 22-65.4 0.1 18.8-1.1 76-18.7 110.5-15.7 30.7-25.5 70-4.7 98.9 12 16.6 35.1 38.3 66.4 57.3-11.7 2.9-22.8 4.3-32.7 4.3l-1.5 2.4c-57.6-36.2-93.9-80-103.6-114.5l-1.1-2.8c3.6-1.2 7.2-3 10.8-5.3z" fill="#FFC500" p-id="16759"></path><path d="M302.3 422.9c-4.2 20.3-11.8 42.4-22 65.4-14.2 32.1-38 69.5-63.1 85.4-7.8 1.5-15.5 0.2-22.9-4.7-43-28.2 17.9-87.8 17.9-141.8 0-39 5.9-108.2 41.6-113 4.6 1.4 9.6 3.6 14.9 6.8 9.4 5.6 16.8 12.3 22.5 19.9 15.5 21 17.8 49.3 11.1 82z" fill="#FFEB00" p-id="16760"></path><path d="M194.8 429.4c0-45.5 7.8-130.9 59-115.2-35.7 4.8-41.6 74-41.6 113 0 54-60.9 113.6-17.9 141.8 7.4 4.8 15.1 6.1 22.9 4.7-3.6 2.3-7.1 4.1-10.7 5.4-10.2 3.8-20.4 3.3-30.1-3-44.5-29.2 18.4-90.9 18.4-146.7z" fill="#FFC500" p-id="16761"></path><path d="M193.7 587.5c-7.3 0-14.2-2.1-20.7-6.4-31.2-20.5-16.6-54.8-2.5-87.9 9-21.2 18.3-43.1 18.3-63.7 0-34.6 4.1-95.6 31.9-116.1 9.8-7.3 21.5-8.9 34.8-4.8 5.1 1.6 10.6 4.1 16.2 7.4 9.9 5.9 18.1 13.1 24.3 21.5 15.5 21 19.6 50.2 12.1 86.7-4 19.7-11.6 42.1-22.4 66.7-13.8 31.3-38.2 70.8-65.3 88-4 2.5-8 4.5-11.9 6-5.1 1.7-10 2.6-14.8 2.6zM242 318.3c-5.2 0-9.9 1.5-14.1 4.6-17 12.5-27.1 52.3-27.1 106.5 0 23.1-9.8 46.2-19.3 68.4-15.3 36.1-23.6 58.9-1.9 73.2 7.6 5 15.7 5.7 24.8 2.4 3.1-1.1 6.3-2.8 9.6-4.8 24.9-15.8 48.3-54.4 60.8-82.7 10.5-23.7 17.8-45.3 21.6-64.2 6.8-33 3.4-58.9-10-77.1-5.3-7.1-12.2-13.3-20.7-18.3-4.8-2.8-9.4-4.9-13.6-6.2-3.7-1.2-7-1.8-10.1-1.8z" fill="#91000A" p-id="16762"></path><path d="M553.6 770.3c-18.9 0-38.2-1.2-57.4-3.5-5.2-0.6-10-1.3-14.7-2-9.1-1.4-18.2-3.1-27-4.9-15.6-3.3-31.2-7.4-46.2-12.2l-4.2-1.4c-34.7-11.4-67-26.4-96.3-44.8-27.8-17.5-52.4-37.9-71.1-59-17.8-20.1-29.9-40.5-35.1-58.9-0.9-3.2 1-6.5 4.2-7.4 3.2-0.9 6.5 1 7.4 4.2 10 35.6 48.7 78.1 101 111 29.5 18.6 62.4 33.6 97.7 44.9l3.5 1.1c13.5 4.2 27.5 7.8 41.6 10.8 8.6 1.8 17.5 3.5 26.4 4.8 4.6 0.7 9.2 1.4 14.3 2 38.5 4.7 77.3 4.6 112.3-0.4 26.1-3.7 50-10 71.1-18.7l1.8-0.8c10.5-4.5 20.4-9.6 29.4-15.3 6.9-4.4 13.5-9.2 19.5-14.4 7.6-6.5 14.3-13.7 20.1-21.2 4.5-5.8 8.5-12.1 11.9-18.6 0.1-0.2 0.2-0.3 0.3-0.5 3-5.9 5.7-12.1 7.8-18.5 2.3-6.9 4.1-14.2 5.4-21.8 0.2-1.1 0.3-2.2 0.5-3.2 1.1-7.9 1.7-15.9 1.8-23.8 0.1-3.2 0-6.4-0.1-9.7-0.4-10.5-1.7-21.2-3.8-31.7-0.7-3.6-1.6-7.3-2.5-11-6.2-24.3-16.9-48.4-31.6-71.6-2.6-4.1-5.4-8.3-8.4-12.5-6.5-9.2-13.7-18.3-21.5-27.1-7.1-8.1-14.9-16-23-23.6-2.2-2.1-4.5-4.2-7.1-6.4-9.5-8.4-19.7-16.5-30.2-24-10.8-7.8-22.3-15.1-34.1-21.7-7.8-4.5-16-8.7-24.2-12.7-2.6-1.2-5.3-2.5-8.3-3.9-11.9-5.4-24.2-10.2-36.5-14.4-8-2.7-16.4-5.3-24.8-7.5-10-2.7-20-5-29.6-6.9-137.8-27.4-197.2 31.3-197.8 31.9-2.3 2.4-6.1 2.4-8.5 0.1-2.4-2.3-2.4-6.1-0.1-8.5 0.7-0.7 16.5-16.6 50.4-28.8 30.8-11.1 83.3-21.3 158.3-6.4 9.9 2 20.1 4.3 30.3 7.1 8.7 2.3 17.3 4.9 25.5 7.7 12.7 4.3 25.4 9.3 37.6 14.8 3.1 1.4 5.9 2.7 8.5 4 8.5 4.1 16.8 8.4 24.9 13 12.1 6.9 23.9 14.4 35.1 22.4 10.9 7.8 21.4 16.1 31.2 24.8 2.7 2.4 5.1 4.5 7.3 6.7 8.4 7.8 16.4 16 23.8 24.4 8.1 9.1 15.6 18.6 22.3 28.1 3.1 4.3 6 8.7 8.7 13 15.4 24.3 26.5 49.5 33.1 75.1 1 3.9 1.9 7.8 2.7 11.6 2.3 11.2 3.6 22.5 4 33.6 0.1 3.5 0.2 7 0.1 10.4-0.1 8.4-0.7 17-1.9 25.4-0.2 1.2-0.3 2.4-0.5 3.5-1.4 8.1-3.3 16.1-5.8 23.6-2.4 7-5.2 13.8-8.6 20.2l-0.2 0.4c-3.8 7.2-8.2 14.1-13.1 20.5-6.2 8.2-13.6 15.9-21.8 23-6.4 5.5-13.5 10.7-20.9 15.4-8.5 5.4-17.8 10.3-27.5 14.7l-3.7 1.6c-22.5 9.5-48 16.4-75.9 20.3-18.3 2.3-37.8 3.6-57.8 3.6z" fill="#91000A" p-id="16763"></path><path d="M782.2 776.1c-8.8 0-17.3-1.6-24-6.9-6.1-4.9-9.7-12.1-10.5-21.6-1.6-18.1-13.6-33.6-13.8-33.8-2-2.6-1.6-6.4 1-8.4s6.4-1.6 8.4 1c0.6 0.7 14.3 18.5 16.3 40.1 0.6 6.2 2.5 10.6 6 13.3 6.9 5.5 19.6 4.6 29.9 3.2 15.3-2.1 27.3-5.1 37.9-9.5 12.1-5 22.9-11.9 35.2-22.6 27.4-23.8 41.9-51.8 38.8-74.9-2.4-17.9-15-32.4-37.5-43.3-24.7-11.9-53.1-11.8-67.8-10.7-8.2 0.6-13.4 1.6-13.4 1.6-3.2 0.6-6.4-1.5-7-4.7-0.6-3.2 1.5-6.4 4.7-7 0.2 0 5.9-1.2 14.9-1.8 15.9-1.2 46.7-1.3 73.9 11.9 18.1 8.7 40.5 25 44.2 52.5 3.6 27.1-12.4 59.1-42.9 85.6-13.3 11.6-25.2 19.2-38.5 24.6-11.6 4.8-24.6 8-40.9 10.3-4.8 0.5-9.9 1.1-14.9 1.1zM312.6 699.9c-3.3 0-6-2.7-6-6s2.7-6 6-6c9.8 0 20.3-1.4 31.2-4.1 12.9-3.2 25.9-8.2 38.8-14.8 24.4-12.4 47.1-29.9 67.5-51.9 21-22.7 39-49.9 53.5-80.7 4.9-10.4 9.4-21.4 13.5-32.6 8.4-23.4 13.8-45.9 15.9-66.9 4.6-45.6-7-77.1-17.4-95.5-11.3-19.9-23.9-29.2-24.1-29.3-2.7-1.9-3.3-5.7-1.3-8.4 1.9-2.7 5.7-3.3 8.4-1.4 0.6 0.4 14.5 10.6 27.1 32.5 11.5 20 24.2 54.1 19.3 103.2-2.2 22-7.8 45.5-16.5 69.8-4.2 11.6-8.9 22.9-13.9 33.7-15 31.9-33.7 60.1-55.5 83.8-21.3 23.1-45.2 41.4-70.9 54.5-13.7 7-27.6 12.3-41.3 15.7-12.1 2.8-23.6 4.4-34.3 4.4z" fill="#91000A" p-id="16764"></path><path d="M432.7 492c-20.6 0-41.3-9.1-56.9-24.8-15.4-15.6-24.2-36.1-24.2-56.2 0-25.8 11.9-49.5 32.6-65 5.3-3.9 11-7.2 17-9.8 9.9-4.2 20.5-6.3 31.4-6.3 44.7 0 81.1 36.4 81.1 81.1 0 4.5-0.4 9-1.1 13.4-0.5 3-1.2 5.9-1.9 8.7-9.8 34.7-41.9 58.9-78 58.9z m0-150.1c-9.3 0-18.3 1.8-26.8 5.4-5.1 2.1-10 4.9-14.5 8.3-17.7 13.2-27.8 33.4-27.8 55.4 0 36.1 32.9 69.1 69.1 69.1 30.8 0 58.1-20.7 66.5-50.3 0.7-2.3 1.2-4.8 1.6-7.4 0.6-3.7 0.9-7.6 0.9-11.4 0-38.1-31-69.1-69-69.1z m-29.1-0.1zM209.8 519.7c-1.2 0-2.5-0.4-3.5-1.1-2.7-1.9-3.3-5.7-1.3-8.4 17.2-23.6 30.3-79.4 31.8-101.9 0.2-3.3 3.1-5.8 6.4-5.6 3.3 0.2 5.8 3.1 5.6 6.4-1.4 22.8-14.8 81.7-34 108.2-1.3 1.6-3.2 2.4-5 2.4zM243.3 397.3c-2.9 0-5.2-2-5.8-4.7-0.3-0.8-0.5-1.6-0.5-2.5 0-3.3 2.7-6 6-6 3.2 0 6.4 2.5 6.4 7.2-0.1 3.3-2.8 6-6.1 6z m-0.4-1.1z m0 0z m0 0z m0 0z m0 0z m-0.1 0c0.1 0 0.1 0 0 0 0.1 0 0.1 0 0 0z m0 0z m0 0z m0 0z m-5.5-4.9zM781.4 561.3c-0.7 0-1.5-0.1-2.2-0.4-3.1-1.2-4.6-4.7-3.4-7.8l0.1-0.3c15-38.4 7.1-89.1-22.4-142.7-19.1-34.8-46.2-68.9-76.4-96.2-29.5-26.6-58.5-43.8-81.6-48.3-52.5-10.2-92 40.2-95.4 44.7l-0.2 0.4-0.6 0.6c-2.4 2.3-6.2 2.3-8.5-0.1-2-2.1-2.3-5.2-0.7-7.5l0.2-0.3c1.2-1.7 12.7-16.8 31.2-30 24.6-17.7 51-24.5 76.3-19.5C650.2 264 723.2 330.1 764 404.2c14.7 26.7 24.4 52.9 28.8 77.6 4.9 27.7 3 53-5.6 75.1-0.1 0.2-0.1 0.3-0.2 0.5-1 2.5-3.3 3.9-5.6 3.9z" fill="#91000A" p-id="16765"></path><path d="M574.5 450.9c-18.9 0-35-7.6-35.9-8-3-1.4-4.3-5-2.8-8s5-4.3 8-2.8c0.2 0.1 24.6 11.5 45.6 4.6 10.4-3.4 18.4-11 23.8-22.5 7-15.2 5.7-31.3-3.9-47.8-7.5-12.9-17.5-21.2-17.6-21.3-2.6-2.1-2.9-5.9-0.8-8.4 2.1-2.6 5.9-2.9 8.4-0.8 0.5 0.4 11.5 9.5 20.1 24.1 11.7 19.9 13.3 40.4 4.6 59.2-6.8 14.6-17.2 24.4-30.9 28.9-6.2 2.1-12.5 2.8-18.6 2.8z" fill="#91000A" p-id="16766"></path><path d="M548.6 555.7c-14.3 0-29-3.8-41.8-11.4-2.9-1.7-3.8-5.4-2.1-8.2 1.7-2.9 5.4-3.8 8.2-2.1 20.6 12.1 47.4 12.8 66.7 1.8 10.2-5.8 18-14.5 23.2-25.7 16.7-36.3-9.3-59.6-12.3-62.2l-0.3-0.3c-2.4-2.3-2.4-6.1-0.1-8.5 2.2-2.3 5.9-2.4 8.3-0.3 13.5 11.5 31.8 40.4 15.3 76.3-6.2 13.6-15.7 24.1-28.1 31.2-11.2 6.2-24 9.4-37 9.4z" fill="#91000A" p-id="16767"></path><path d="M507.4 641.4c-27.2 0-50.3-12-55.6-15l-0.8-0.4-0.6-0.6c-2.4-2.3-2.4-6.1-0.1-8.5 2-2 5.1-2.4 7.4-0.9 4.1 2.3 38.3 20.5 71.1 10.3 8.8-2.7 16.9-7.4 24-13.7 3.1-2.8 6.1-5.9 9-9.5 24.4-30.2 15.4-59.5 15.3-59.8-1-3.2 0.7-6.5 3.9-7.5s6.5 0.7 7.5 3.9c0.5 1.4 11.1 35.8-17.3 71-3.3 4.1-6.8 7.7-10.4 10.9-8.4 7.5-18 13-28.4 16.2-8.5 2.6-16.9 3.6-25 3.6zM647.3 445.9c-10 0-21.8-2.4-35.8-8.6-3-1.3-4.4-4.9-3-7.9 1.3-3 4.9-4.4 7.9-3 24.2 10.8 43.3 10.2 56.8-1.7 9.1-8 12.4-18.6 12.4-18.7 0.9-3.2 4.2-5 7.4-4.1 3.2 0.9 5 4.2 4.1 7.4-0.2 0.6-4.1 13.9-16 24.4-7.3 6.3-18.2 12.2-33.8 12.2z" fill="#91000A" p-id="16768"></path><path d="M625.5 535.1c-11.6 0-20-1.5-20.7-1.6-3.3-0.6-5.4-3.7-4.9-7s3.7-5.4 7-4.9c0.3 0 28.2 4.8 50.8-3.8 6.8-2.6 12.5-6.2 16.8-10.7 3.3-3.4 5.9-7.4 7.7-11.9 15.6-37.3-8.8-61.2-9-61.5-2.4-2.3-2.5-6.1-0.2-8.5 2.3-2.4 6.1-2.5 8.5-0.2 1.3 1.2 30.5 29.9 11.8 74.8-2.4 5.9-5.9 11.1-10.2 15.6-5.6 5.8-12.7 10.4-21.2 13.6-12.3 4.8-25.7 6.1-36.4 6.1z" fill="#91000A" p-id="16769"></path><path d="M599.5 634c-24.5 0-44-10.5-45.1-11.1-2.9-1.6-4-5.2-2.4-8.1 1.6-2.9 5.2-4 8.1-2.4 0.3 0.2 34.2 18.3 65.8 4.2 4.2-1.9 8.2-4.3 12-7.1 2.5-1.9 4.8-3.8 6.9-5.7 18.8-17.1 22.3-34.8 21.9-46.7-0.4-14.5-6.3-24.6-8.6-27.1-1.8-0.6-3.3-2-3.9-4-0.9-3.2 0.9-6.5 4-7.5 4.4-1.3 8.5 1.7 12.7 9 9.5 16.9 16.4 53.7-18 85.1-2.4 2.2-5 4.3-7.8 6.4-4.5 3.4-9.3 6.3-14.3 8.5-10.6 4.8-21.3 6.5-31.3 6.5zM680.9 517.4c-3.1 0-5.7-2.4-6-5.5-0.3-3.3 2.2-6.2 5.5-6.5 0.2 0 24.9-2.2 43.1-14.5 8.9-6.1 14.8-13.5 17.3-22.3l0.1-0.4 5.8 1.6 5.8 1.7c-0.1 0.2-0.1 0.4-0.2 0.6-3.4 11.4-10.8 21.1-22.1 28.7-20.8 14.1-47.7 16.5-48.8 16.6h-0.5z" fill="#91000A" p-id="16770"></path><path d="M670.2 616.4c-6.2 0-12.7-0.7-19.4-2.1-3.2-0.7-5.3-3.9-4.6-7.1 0.7-3.2 3.9-5.3 7.1-4.6 32 6.9 58.5-6.7 70.6-23.2 2.6-3.6 4.5-7.2 5.5-10.7 8.6-29-5.5-68.6-5.7-69-1.1-3.1 0.5-6.6 3.6-7.7 3.1-1.1 6.6 0.5 7.7 3.6 0.6 1.8 15.6 43.8 5.9 76.5-1.4 4.9-3.9 9.7-7.3 14.4-11.8 16-34.9 29.9-63.4 29.9z" fill="#91000A" p-id="16771"></path><path d="M738.2 590.7c-4.6 0-7.6-0.6-7.8-0.7-3.2-0.7-5.3-3.9-4.6-7.1 0.7-3.2 3.9-5.3 7.1-4.6 1.2 0.2 28.1 5.3 43-25.6 1.4-3 5-4.2 8-2.8 3 1.4 4.2 5 2.8 8-9.9 20.5-24.6 28.2-35.2 31-5 1.4-9.6 1.8-13.3 1.8zM459.5 709.4c-44.2 0-76.7-29.3-78.2-30.8l-0.2-0.2c-2.3-2.3-2.3-6.1 0-8.5 2.3-2.3 6-2.4 8.4-0.1 2.4 2.2 39.8 35.3 87 25.9 4.7-0.9 9.5-2.3 14.1-4.1 2.1-0.8 4.2-1.7 6.2-2.6 16.4-7.8 26.1-19.3 28.9-34.4 2-11.1-0.6-20.2-0.6-20.3-1-3.2 0.8-6.5 4-7.5s6.5 0.8 7.5 4c0.1 0.5 3.6 11.8 1 26-2.4 13.1-10.5 31.2-35.6 43.1-2.3 1.1-4.7 2.1-7.1 3-5.3 2-10.7 3.5-16 4.6-6.7 1.4-13.2 1.9-19.4 1.9z" fill="#91000A" p-id="16772"></path><path d="M545.1 706.9c-14.2 0-29.9-2-46.8-6-3.2-0.8-5.2-4-4.5-7.2 0.8-3.2 4-5.2 7.2-4.5 31.8 7.5 58.3 7.6 78.6 0.3 8.1-2.9 15.2-7.1 21.3-12.3 24-20.8 24.4-53.4 24.4-53.7 0-3.3 2.7-6 6-6s6 2.7 6 6c0 1.6-0.3 38.3-28.5 62.7-7.2 6.2-15.6 11.1-25.1 14.6-11.4 4-24.3 6.1-38.6 6.1z" fill="#91000A" p-id="16773"></path><path d="M636.1 696.3c-10.6 0-19.7-1.9-25.4-4-6.4-2.3-10.2-5.1-11.5-8.5v-0.1c-0.2-0.4-0.4-1.1-0.4-2-0.2-3.3 2.2-6.2 5.5-6.4 2.7-0.2 5.1 1.4 6 3.7 4.7 3.6 33.9 11.6 60.5-3.5 9.8-5.6 17.9-13.7 24.1-24.2 8.1-13.6 13.1-31.3 14.7-52.5 0.3-3.3 3.1-5.8 6.4-5.5 3.3 0.3 5.8 3.1 5.5 6.4-1.8 23.1-7.3 42.5-16.3 57.7-7.3 12.3-16.9 21.9-28.5 28.5-13.8 7.8-28.2 10.4-40.6 10.4z m-25.4-15.6z m-0.8-2.1z" fill="#91000A" p-id="16774"></path><path d="M714.2 663.7c-8.1 0-14.8-1.6-18-4.9-2.3-2.4-2.3-6.2 0.1-8.5 2.3-2.3 6-2.3 8.3 0 2.5 1.5 16.8 3.3 33.6-3.4 16.8-6.7 37.5-22.5 40.5-59.7 0.3-3.3 3.2-5.8 6.5-5.5 3.3 0.3 5.8 3.2 5.5 6.5-3.7 45.6-31.7 63.4-48 69.9-9.3 3.7-19.8 5.6-28.5 5.6z m-9.4-13.3zM550.4 326.9c-1.1 0-2.2-0.3-3.2-0.9-2.8-1.8-3.7-5.5-1.9-8.3 0.2-0.4 5.9-9.3 16.2-18 9.6-8.2 25.3-17.8 45.6-17.1 3.3 0.1 5.9 2.9 5.8 6.2-0.1 3.3-2.9 5.9-6.2 5.8-16.5-0.5-29.5 7.5-37.5 14.3-8.9 7.6-13.8 15.2-13.8 15.3-1 1.7-3 2.7-5 2.7zM587.4 341.9c-1 0-2.1-0.3-3.1-0.8-2.8-1.7-3.8-5.3-2.1-8.2 0.2-0.4 5.9-9.8 18.3-17.4 11.3-6.9 24.4-10.2 39-9.8 3.3 0.1 5.9 2.9 5.8 6.2s-2.9 5.9-6.2 5.8c-12.2-0.4-23.1 2.3-32.3 8-9.8 6-14.2 13.3-14.3 13.3-1.1 1.9-3.1 2.9-5.1 2.9zM619.7 359.4c-1.6 0-3.2-0.6-4.4-1.9-2.3-2.4-2.1-6.2 0.3-8.5 0 0 0.2-0.2 0.6-0.5 2.8-2.5 10.5-8.6 22.1-13.1 9.9-3.9 20.1-5.5 30.3-5 3.3 0.2 5.8 3 5.6 6.3-0.2 3.3-3 5.8-6.3 5.6-8.5-0.5-17 0.9-25.2 4.2-10.1 3.9-16.7 9.4-18.5 10.9-0.2 0.2-0.3 0.3-0.4 0.3-1.2 1.2-2.6 1.7-4.1 1.7zM655.5 380c-1.8 0-3.6-0.8-4.8-2.3-2-2.6-1.6-6.4 1.1-8.4 0.3-0.3 8.6-6.6 20.3-10 9.8-2.9 19.2-3 27.9-0.2 3.2 1 4.9 4.4 3.9 7.5s-4.4 4.9-7.5 3.9c-6.4-2-13.5-1.9-20.9 0.3-9.5 2.8-16.2 7.9-16.3 8-1.1 0.8-2.4 1.2-3.7 1.2zM685.5 405.4c-1.9 0-3.8-0.9-5-2.6-1.9-2.7-1.2-6.4 1.5-8.3 0.3-0.2 8.2-5.6 19.4-7.6 8.6-1.5 16.8-0.7 24.4 2.4 3.1 1.3 4.5 4.8 3.3 7.8-1.3 3.1-4.8 4.5-7.8 3.3-5.4-2.2-11.4-2.8-17.7-1.7-8.5 1.5-14.7 5.7-14.8 5.7-0.9 0.7-2.1 1-3.3 1zM716.7 435.4c-2 0-3.9-0.9-5-2.7-1.8-2.8-1.1-6.5 1.7-8.3 0.6-0.4 6.6-4.2 14.8-5.5 6.7-1 13.1-0.1 18.9 2.8 3 1.5 4.2 5.1 2.7 8-1.5 3-5.1 4.2-8 2.7-3.5-1.8-7.5-2.3-11.7-1.7-5.7 0.9-10 3.6-10 3.6-1.1 0.8-2.3 1.1-3.4 1.1zM761.7 464.3c-1.3 0-2.5-0.4-3.6-1.2-2.1-1.6-5-2.3-8.5-2.2-4.7 0.2-8.7 1.8-8.7 1.8-3.1 1.2-6.6-0.2-7.8-3.3-1.3-3.1 0.2-6.5 3.2-7.8 0.6-0.2 6.1-2.4 12.8-2.7 6.3-0.2 11.8 1.3 16.1 4.6 2.7 2 3.2 5.7 1.2 8.4-1 1.6-2.8 2.4-4.7 2.4zM533.2 810.9c-3 0-5.5-0.1-7.4-0.2-15.7-1.1-29.3-10.1-39.2-26.2-7.2-11.6-10-22.9-10.1-23.4-0.8-3.2 1.2-6.5 4.4-7.2 3.2-0.8 6.5 1.2 7.2 4.4 0.1 0.3 2.6 10.2 8.8 20.2 7.9 12.7 17.9 19.5 29.6 20.3 22.3 1.5 113.7-4.3 154-61 1.9-2.7 5.7-3.3 8.4-1.4s3.3 5.7 1.4 8.4c-18.8 26.4-50.3 46.2-91.2 57.1-27 7.1-51.8 9-65.9 9z" fill="#91000A" p-id="16775"></path><path d="M571.2 787.6c-0.9 0-1.8-0.2-2.7-0.6-8-4-17.3-16.6-18.3-18-1.9-2.7-1.4-6.4 1.3-8.4 2.7-1.9 6.4-1.4 8.4 1.3 3.2 4.5 9.9 12.3 14 14.3 3 1.5 4.2 5.1 2.7 8-1.1 2.2-3.2 3.4-5.4 3.4zM534.3 789.9c-0.9 0-1.8-0.2-2.7-0.6-8.2-4.1-16.1-18.2-17.6-21-1.6-2.9-0.5-6.6 2.4-8.1 2.9-1.6 6.6-0.5 8.1 2.4 2.9 5.4 8.9 14.2 12.4 16 3 1.5 4.2 5.1 2.7 8-1 2.1-3.1 3.3-5.3 3.3zM608.2 780.7c-0.7 0-1.4-0.1-2.1-0.4-11.1-4.2-16.7-13.8-17-14.2-1.6-2.9-0.6-6.5 2.2-8.2 2.9-1.6 6.5-0.7 8.2 2.2 0.1 0.2 3.9 6.3 10.8 8.9 3.1 1.2 4.7 4.6 3.5 7.7-0.9 2.5-3.2 4-5.6 4zM878.3 669.8c-1.5 0-3-0.5-4.1-1.6-23.8-22.5-52.7-31.2-72.7-34.6-10.7-1.8-17.8-1.8-17.8-1.8-3.3 0-6-2.7-6-6s2.7-6 6-6c0.3 0 8.1 0 19.8 2 21.7 3.7 52.9 13.2 79 37.7 2.4 2.3 2.5 6.1 0.2 8.5-1.2 1.2-2.8 1.8-4.4 1.8zM847.2 701c-2.2 0-4.3-1.2-5.4-3.3-9.2-18.3-29-29.8-44.1-36.2-11.2-4.8-19.9-6.8-20-6.8-3.2-0.7-5.3-3.9-4.5-7.2s3.9-5.3 7.2-4.5c0.4 0.1 9.8 2.3 22.1 7.5 16.9 7.2 39.3 20.3 50.1 41.9 1.5 3 0.3 6.6-2.7 8-0.9 0.4-1.8 0.6-2.7 0.6zM813.7 729.9c-2.8 0-5.4-2-5.9-4.9-2.4-13.2-9-25.2-19.5-35.6-10.4-10.4-20.9-15.4-21-15.4-3-1.4-4.3-5-2.9-8s5-4.3 8-2.9c0.5 0.2 12.5 5.9 24.4 17.8 12.3 12.3 20 26.4 22.9 42 0.6 3.3-1.6 6.4-4.8 7-0.5-0.1-0.9 0-1.2 0zM782.5 747.2c-3.1 0-5.8-2.4-6-5.6-0.5-7.3-2.2-14.5-5.1-21.5-6.9-17.2-18.3-27.5-18.4-27.6-2.5-2.2-2.7-6-0.4-8.5 2.2-2.5 6-2.7 8.5-0.4 0.5 0.5 13.5 12.3 21.5 32 3.3 8.2 5.3 16.6 5.9 25.1 0.2 3.3-2.2 6.2-5.6 6.4-0.1 0.1-0.2 0.1-0.4 0.1zM418.9 746.2c-2.7 0-5.6-0.1-8.4-0.2-3.3-0.2-5.9-3-5.7-6.3 0.2-3.3 3-5.9 6.3-5.7 20.5 1 36.2-1.7 46.7-8 15.4-9.2 14-23.3 14-23.4-0.4-3.3 2-6.3 5.3-6.6 3.3-0.4 6.3 2 6.6 5.3 0.1 0.9 2.2 21.9-19.7 35-11.1 6.6-26.2 9.9-45.1 9.9z" fill="#91000A" p-id="16776"></path><path d="M496.2 766.8c-3.2 0-5.8-2.5-6-5.7-0.1-3.3 2.4-6.1 5.7-6.3h0.6c4.8-0.3 46.6-3.1 70.5-17.6 16.4-9.9 19.4-22.3 9.6-39l-0.1-0.2-0.2-0.4c-1.4-3-0.2-6.6 2.8-8 2.8-1.4 6.2-0.3 7.8 2.4 13.3 22.4 8.5 42.1-13.6 55.5-11.1 6.7-26.4 11.9-45.6 15.5-14.8 2.7-26.9 3.6-30.3 3.8-0.5 0-0.8 0.1-0.8 0.1-0.3-0.1-0.3-0.1-0.4-0.1zM609.3 766.8c-2.6 0-5.1-1.8-5.8-4.4-0.9-3.2 1-6.5 4.2-7.4 0.5-0.1 0.9-0.3 1.3-0.4 23.2-6.7 40.2-15.9 50.5-27.4 19.1-21.1 9-43.3 8.9-43.5-1.4-3-0.1-6.6 2.9-8 3-1.4 6.6-0.1 8 2.9 0.6 1.2 13.5 29.7-10.9 56.7-11.9 13.2-30.7 23.5-56 30.9-0.5 0.1-1 0.3-1.6 0.5-0.4 0.1-1 0.1-1.5 0.1zM708.6 735.7c-2 0-3.9-1-5.1-2.8-1.8-2.8-1-6.5 1.8-8.3 2.3-1.4 4.4-3 6.3-4.6 8.6-7 14.9-15.7 19-26.1 7.8-19.9 4.4-39.2 4.3-39.4-0.6-3.3 1.6-6.4 4.8-7 3.3-0.6 6.4 1.5 7 4.8 0.2 0.9 4.1 22.7-5 45.9-4.8 12.3-12.4 22.8-22.6 31.1-2.3 1.9-4.8 3.7-7.5 5.4-0.8 0.6-1.9 1-3 1z" fill="#91000A" p-id="16777"></path><path d="M345.5 692.4c28.1-6.1 107.5 26.1 109.8 65.9 2.3 39.8-63.2 42.5-84.9 23.2-21.8-19.4-65.7-80.2-24.9-89.1z" fill="#FFEB00" p-id="16778"></path><path d="M408.8 799.1c-16.4 0-32.8-4.6-42.4-13.2-17.6-15.6-49.2-57-42.7-81.7 1.7-6.4 6.6-14.6 20.5-17.6 21.1-4.6 62.9 9.2 89.6 29.4 17.1 13 26.7 27.6 27.5 42 0.9 15.3-6.7 27.6-21.5 34.8-9 4.3-20 6.3-31 6.3z m-62.1-100.8c-8.7 1.9-10.7 6-11.5 9-4.6 17.6 22.7 55.1 39.1 69.7 12.5 11.1 42.3 13.6 60.2 5 10.4-5 15.4-12.9 14.8-23.3-0.8-13.7-12.8-25.6-22.8-33.2-25.7-19.5-63.9-30.6-79.8-27.2z m-1.2-5.9z" fill="#91000A" p-id="16779"></path><path d="M400 774.6c-1.5 0-3.1-0.6-4.2-1.8l-49-48.8c-2.3-2.3-2.3-6.1 0-8.5 2.3-2.3 6.1-2.3 8.5 0l48.9 48.9c2.3 2.3 2.3 6.1 0 8.5-1.2 1.1-2.7 1.7-4.2 1.7z" fill="#91000A" p-id="16780"></path><path d="M429.6 759.2c-1.2 0-2.3-0.3-3.3-1L371 720.9c-2.7-1.9-3.5-5.6-1.6-8.3 1.9-2.7 5.6-3.5 8.3-1.6l55.3 37.3c2.7 1.9 3.5 5.6 1.6 8.3-1.2 1.6-3.1 2.6-5 2.6z" fill="#91000A" p-id="16781"></path><path d="M445.7 402.3m-39.8 0a39.8 39.8 0 1 0 79.6 0 39.8 39.8 0 1 0-79.6 0Z" fill="#D3D3D3" p-id="16782"></path><path d="M449.3 398.7m-36.3 0a36.3 36.3 0 1 0 72.6 0 36.3 36.3 0 1 0-72.6 0Z" fill="#333333" p-id="16783"></path><path d="M449.3 435.5c-20.3 0-36.8-16.5-36.8-36.8S429 362 449.3 362s36.8 16.5 36.8 36.8-16.6 36.7-36.8 36.7z m0-72.5c-19.7 0-35.8 16-35.8 35.8s16 35.8 35.8 35.8 35.8-16 35.8-35.8S469 363 449.3 363z" fill="#91000A" p-id="16784"></path><path d="M472.9 395.3c-1.7 0-3.3-1.1-3.8-2.8-1.1-3.4-3-6.5-5.6-8.9-1.6-1.5-1.7-4-0.2-5.7 1.5-1.6 4-1.7 5.7-0.2 3.6 3.4 6.3 7.7 7.8 12.4 0.7 2.1-0.5 4.4-2.6 5-0.5 0.2-0.9 0.2-1.3 0.2zM451.1 378.1h-0.3c-0.5 0-1-0.1-1.6-0.1-2.2 0-4-1.8-4-4s1.8-4 4-4c0.7 0 1.4 0 2.1 0.1 2.2 0.2 3.9 2.1 3.7 4.3 0 2.1-1.8 3.7-3.9 3.7z" fill="#FFFFFF" p-id="16785"></path></svg>