<?xml version="1.0" standalone="no"?><!DOCTYPE svg PUBLIC "-//W3C//DTD SVG 1.1//EN" "http://www.w3.org/Graphics/SVG/1.1/DTD/svg11.dtd"><svg t="1765414728779" class="icon" viewBox="0 0 1024 1024" version="1.1" xmlns="http://www.w3.org/2000/svg" p-id="29209" xmlns:xlink="http://www.w3.org/1999/xlink" width="200" height="200"><path d="M512 494m-308.9 0a308.9 308.9 0 1 0 617.8 0 308.9 308.9 0 1 0-617.8 0Z" fill="#FFFFFF" p-id="29210"></path><path d="M512 821.1c-180.4 0-327.1-146.7-327.1-327.1 0-180.4 146.7-327.1 327.1-327.1S839.1 313.7 839.1 494c0 180.4-146.7 327.1-327.1 327.1z m0-617.9c-160.3 0-290.8 130.4-290.8 290.8S351.7 784.8 512 784.8 802.8 654.3 802.8 494 672.3 203.2 512 203.2z" fill="#403F3F" p-id="29211"></path><path d="M512 936C268.3 936 70.1 737.7 70.1 494S268.3 52.1 512 52.1 953.9 250.3 953.9 494h-36.3c0-223.7-182-405.6-405.6-405.6S106.4 270.3 106.4 494s182 405.6 405.6 405.6V936z" fill="#403F3F" p-id="29212"></path><path d="M18.2 501.5c0 77.4 62.7 140.1 140.1 140.1V361.4c-77.4 0-140.1 62.7-140.1 140.1z" fill="#33ABE3" p-id="29213"></path><path d="M158.3 659.8C71 659.8 0 588.8 0 501.5c0-87.3 71-158.3 158.3-158.3 10 0 18.2 8.1 18.2 18.2v280.2c-0.1 10-8.2 18.2-18.2 18.2z m-18.2-278.9c-58.7 8.8-103.8 59.5-103.8 120.6s45.1 111.8 103.8 120.6V380.9z" fill="#403F3F" p-id="29214"></path><path d="M865.7 361.4v280.2c77.4 0 140.1-62.7 140.1-140.1s-62.7-140.1-140.1-140.1z" fill="#33ABE3" p-id="29215"></path><path d="M865.7 659.8c-10 0-18.2-8.1-18.2-18.2V361.4c0-10 8.1-18.2 18.2-18.2 87.3 0 158.3 71 158.3 158.3 0 87.3-71 158.3-158.3 158.3z m18.2-278.9v241.2c58.7-8.8 103.8-59.5 103.8-120.6s-45.1-111.8-103.8-120.6z" fill="#403F3F" p-id="29216"></path><path d="M633.8 953.8H390.2c-1.6 0-3-1.3-3-3V855c0-1.6 1.4-3 3-3h243.5c1.6 0 3 1.4 3 3v95.8c0.1 1.6-1.3 3-2.9 3z" fill="#33ABE3" p-id="29217"></path><path d="M600.5 971.9h-177c-30 0-54.5-24.4-54.5-54.5v-29.1c0-30 24.4-54.5 54.5-54.5h176.9c30 0 54.5 24.4 54.5 54.5v29.1c0 30.1-24.4 54.5-54.4 54.5z m-177-101.7c-10 0-18.2 8.1-18.2 18.2v29.1c0 10 8.1 18.2 18.2 18.2h176.9c10 0 18.2-8.1 18.2-18.2v-29.1c0-10-8.1-18.2-18.2-18.2H423.5z" fill="#403F3F" p-id="29218"></path><path d="M646 652.1L499.2 506.9c-1.7-1.6-3-3.6-3.9-5.7l-81.1-188.9 33.4-14.3 79.7 185.7 144.3 142.7-25.6 25.7zM203.1 475.9h85.4v36.3h-85.4zM735.6 475.9H821v36.3h-85.4z" fill="#403F3F" p-id="29219"></path><path d="M493.8 185.1h36.3v85.4h-36.3zM493.8 717.6h36.3V803h-36.3z" fill="#403F3F" p-id="29220"></path></svg>